# xmcd CD database file
#
# Track frame offsets:
#	150
#	15787
#	30800
#	53452
#	72447
#	87707
#	106365
#	124225
#	146487
#	164117
#	179807
#	196775
#	216872
#	232482
#	251270
#	265940
#	281162
#	297992
#	315657
#
# Disc length: 4452 seconds
#
# Revision: 0
# Processed by: cddbd v1.4PL0 Copyright (c) Steve Scherf et al.
# Submitted via: CDex 1.50Beta7
#
DISCID=20116213
DTITLE=Yordano - De Colección
DYEAR=1988
DGENRE=Blues
TTITLE0=Muñeca de Lujo
TTITLE1=Días de Junio
TTITLE2=Lejos
TTITLE3=Sin quererlo
TTITLE4=Triste historia
TTITLE5=Con ella no hay salida fácil
TTITLE6=Aquí viene la noche
TTITLE7=Perla negra
TTITLE8=Otra madrugada
TTITLE9=Háblame de amor
TTITLE10=Bailando tan cerca
TTITLE11=Aquél lugar secreto
TTITLE12=Algo bueno tiene que pasar
TTITLE13=No queda nada
TTITLE14=Otra cara bonita
TTITLE15=Hoy vamos a salir
TTITLE16=Manantial de Corazón
TTITLE17=No voy a mover un dedo
TTITLE18=Chatarra de amor
EXTD=YEAR: 1988
EXTT0=
EXTT1=
EXTT2=
EXTT3=
EXTT4=
EXTT5=
EXTT6=
EXTT7=
EXTT8=
EXTT9=
EXTT10=
EXTT11=
EXTT12=
EXTT13=
EXTT14=
EXTT15=
EXTT16=
EXTT17=
EXTT18=
PLAYORDER=
